<?xml version="1.0" encoding="utf-8"?>
<!-- Generator: Adobe Illustrator 15.1.0, SVG Export Plug-In . SVG Version: 6.00 Build 0)  -->
<!DOCTYPE svg PUBLIC "-//W3C//DTD SVG 1.1//EN" "http://www.w3.org/Graphics/SVG/1.1/DTD/svg11.dtd">
<svg version="1.1" xmlns="http://www.w3.org/2000/svg" xmlns:xlink="http://www.w3.org/1999/xlink" x="0px" y="0px"
	 width="1190.55px" height="841.89px" viewBox="0 0 1190.55 841.89" enable-background="new 0 0 1190.55 841.89"
	 xml:space="preserve">
<g id="Layer_1">
	<path fill-rule="evenodd" clip-rule="evenodd" fill="#FFFFFF" d="M710,418.89c-0.256,3.923,3.617,3.717,3,8
		c-3.405,0.928-5.865,2.802-11,2C698.751,423.261,701.568,416.069,710,418.89z"/>
</g>
<g id="Layer_2">
	<g>
		<path d="M673.86,478.865c-3.997-1.564-9.293-0.445-13.396-0.697c-3.455-0.213-7.645-0.271-10.939-1.467
			c-2.832-1.029-0.494-1.584,1.384-3.193c2.021-1.731,4.006-3.507,5.969-5.308c-3.112-0.511-6.205-0.956-9.26-1.361
			c-5.672,3.923-11.929,7.128-17.992,10.052c7.146,2.95,14.898,4.683,22.501,5.921c3.561,0.579,11.207-0.265,9.514,5.281
			c-0.752,2.464-2.594,4.753-4.265,6.673c2.188-0.914,14.062-5.14,9.95-8.846c-0.464-0.418-2.075-0.65-1.995-1.52
			c0.143-1.542,4.455-0.568,5.238-0.052c1.916,1.264,2.417,3.896,2.307,6.042C675.508,487.212,679.583,481.104,673.86,478.865z"/>
		<path d="M771.661,425.224c0,0-13.438-7.892-22.396-12.585s-17.896-4.891-24.955,5.617c-6.399,9.526,3.412,16.565-5.119,23.391
			c-13.399,10.72-32.421-11.305-55.242-21.756c-35.601-16.303-44.579-5.972-86.171-32.847
			c-57.919-37.424-98.327-79.558-98.327-79.558c9.6,18.983,74.864,77.212,101.739,107.926c8.654,9.891,13.651,11.091,21.33,29.648
			c0.771,1.861,1.737,3.503,2.87,4.969c3.625-6.192,7.19-12.911,13.136-17.019c-2.389,7.01-12.203,22.73-13.026,23.88
			c-1.758,2.455-18,26-30,25c-3,0-5,3-6,5c-5,11-11.078,20.284-15,32c0,1,1,2,1,2c8,5,16,2,23.771,1.595
			c-2.242-4.584-9.294-4.396-13.448-3.797c3.131-3.469,10.374-7.736,14.088-2.602c-0.133-3.134-1.019-7.653-4.326-8.92
			c-3.854-1.476-8.884,2.022-11.833,4.224c1.621-2.532,2.389-3.282,2.504-3.146c3.43-4.576,6.184-9.294,10.244-13.354
			c9-9,20.071-12.517,32.856-15.106c12.634-2.782,25.945-8.095,37.084-15.961c0.006,0.001,0.013,0.002,0.019,0.003
			c5.976-4.222,11.426-9.247,15.783-15.14c0.785,6.678-6.577,12.126-11.432,15.724c4.314,0.6,8.72,1.288,13.138,2.192
			c4.056,0.83,7.854,1.404,11.423,1.772c3.632-2.717,9.644-6.915,14.504-8.859c0,0-3.873,5.243-8.287,9.312h0.001l-0.005,0.003
			c0,0.001-0.001,0.001-0.001,0.001c0.003,0.002,14.542,10.059,17.667,12.059s1.375,4.375,1.375,4.375l-3.875,7.5
			c0,0,5.875-0.75,10.125-6s-1.875-11-7.375-14.625c-1.871-1.233-2.289-2.711-2.094-4.036c8.443-1.165,14.96-3.346,20.292-4.914
			c10.878-3.199,14.931-6.612,19.836-14.077s10.451-6.826,30.288-8.105S771.661,425.224,771.661,425.224z M751.583,422.73
			c-0.521,2.655-5.27,3.543-7.925,3.021c-2.656-0.521-4.386-3.096-3.864-5.75c0.521-2.655,3.095-4.385,5.751-3.863
			S752.104,420.075,751.583,422.73z"/>
	</g>
</g>
</svg>
